<svg width="25" height="24" viewBox="0 0 25 24" fill="none" xmlns="http://www.w3.org/2000/svg">
<path d="M12.5002 0.833252C10.9681 0.833252 9.45099 1.13502 8.03552 1.72132C6.62006 2.30763 5.33393 3.16699 4.25058 4.25034C2.06266 6.43826 0.833496 9.40573 0.833496 12.4999C0.833496 17.6566 4.18183 22.0316 8.8135 23.5833C9.39683 23.6766 9.5835 23.3149 9.5835 22.9999V21.0282C6.35183 21.7283 5.6635 19.4649 5.6635 19.4649C5.12683 18.1116 4.3685 17.7499 4.3685 17.7499C3.30683 17.0266 4.45016 17.0499 4.45016 17.0499C5.61683 17.1316 6.23516 18.2516 6.23516 18.2516C7.25016 20.0249 8.96516 19.4999 9.63016 19.2199C9.73516 18.4616 10.0385 17.9483 10.3652 17.6566C7.77516 17.3649 5.05683 16.3616 5.05683 11.9166C5.05683 10.6216 5.50016 9.58325 6.2585 8.75492C6.14183 8.46325 5.7335 7.24992 6.37516 5.67492C6.37516 5.67492 7.35516 5.35992 9.5835 6.86492C10.5052 6.60825 11.5085 6.47992 12.5002 6.47992C13.4918 6.47992 14.4952 6.60825 15.4168 6.86492C17.6452 5.35992 18.6252 5.67492 18.6252 5.67492C19.2668 7.24992 18.8585 8.46325 18.7418 8.75492C19.5002 9.58325 19.9435 10.6216 19.9435 11.9166C19.9435 16.3733 17.2135 17.3533 14.6118 17.6449C15.0318 18.0066 15.4168 18.7183 15.4168 19.8033V22.9999C15.4168 23.3149 15.6035 23.6883 16.1985 23.5833C20.8302 22.0199 24.1668 17.6566 24.1668 12.4999C24.1668 10.9678 23.8651 9.45074 23.2788 8.03528C22.6925 6.61981 21.8331 5.33369 20.7497 4.25034C19.6664 3.16699 18.3803 2.30763 16.9648 1.72132C15.5493 1.13502 14.0323 0.833252 12.5002 0.833252Z" fill="black"/>
</svg>
