<svg width="216" height="26" viewBox="0 0 216 26" fill="none" xmlns="http://www.w3.org/2000/svg">
<path d="M5.6 19.24C4.848 19.24 4.24 19 3.776 18.52C3.328 18.04 3.008 17.288 2.816 16.264L0.272 3.208C0.24 3.048 0.224 2.928 0.224 2.848C0.224 2.56 0.312 2.344 0.488 2.2C0.68 2.04 0.944 1.96 1.28 1.96C1.664 1.96 1.944 2.048 2.12 2.224C2.312 2.384 2.44 2.632 2.504 2.968L4.952 16.384C5.032 16.768 5.12 17.032 5.216 17.176C5.312 17.304 5.456 17.368 5.648 17.368C5.856 17.368 6.008 17.296 6.104 17.152C6.216 16.992 6.296 16.744 6.344 16.408L8.12 4.336C8.232 3.568 8.488 2.984 8.888 2.584C9.288 2.168 9.816 1.96 10.472 1.96C11.128 1.96 11.648 2.168 12.032 2.584C12.432 3 12.688 3.584 12.8 4.336L14.552 16.408C14.6 16.744 14.68 16.992 14.792 17.152C14.904 17.296 15.056 17.368 15.248 17.368C15.44 17.368 15.584 17.296 15.68 17.152C15.792 17.008 15.88 16.752 15.944 16.384L18.416 2.968C18.48 2.632 18.608 2.384 18.8 2.224C18.992 2.048 19.272 1.96 19.64 1.96C20.328 1.96 20.672 2.256 20.672 2.848C20.672 2.928 20.656 3.048 20.624 3.208L18.104 16.264C17.896 17.256 17.568 18 17.12 18.496C16.688 18.992 16.08 19.24 15.296 19.24C14.544 19.24 13.952 19 13.52 18.52C13.104 18.04 12.816 17.296 12.656 16.288L10.952 4.624C10.904 4.336 10.84 4.136 10.76 4.024C10.696 3.896 10.6 3.832 10.472 3.832C10.328 3.832 10.216 3.896 10.136 4.024C10.072 4.136 10.016 4.336 9.968 4.624L8.24 16.288C8.096 17.296 7.808 18.04 7.376 18.52C6.944 19 6.352 19.24 5.6 19.24ZM28.4278 19.24C26.3478 19.24 24.7238 18.704 23.5558 17.632C22.4038 16.544 21.8278 15.04 21.8278 13.12C21.8278 11.216 22.3958 9.72 23.5318 8.632C24.6838 7.544 26.2758 7 28.3078 7C29.5558 7 30.6598 7.2 31.6198 7.6C32.5958 7.984 33.3558 8.536 33.8998 9.256C34.4438 9.96 34.7158 10.768 34.7158 11.68C34.7158 12.384 34.5078 12.928 34.0918 13.312C33.6918 13.696 33.1158 13.888 32.3638 13.888H24.0358C24.0358 15.008 24.4118 15.88 25.1638 16.504C25.9318 17.112 27.0198 17.416 28.4278 17.416C29.2598 17.416 29.9798 17.328 30.5878 17.152C31.2118 16.976 31.7958 16.688 32.3398 16.288C32.7398 16.016 33.0438 15.88 33.2518 15.88C33.4438 15.88 33.6198 15.96 33.7798 16.12C34.0038 16.344 34.1158 16.576 34.1158 16.816C34.1158 17.056 34.0038 17.28 33.7798 17.488C32.4678 18.656 30.6838 19.24 28.4278 19.24ZM31.6918 12.208C31.9798 12.208 32.1878 12.152 32.3158 12.04C32.4438 11.928 32.5078 11.728 32.5078 11.44C32.5078 10.672 32.1158 10.048 31.3318 9.568C30.5638 9.072 29.5558 8.824 28.3078 8.824C27.0118 8.824 25.9798 9.128 25.2118 9.736C24.4598 10.344 24.0838 11.168 24.0838 12.208H31.6918ZM38.2477 19.24C37.8957 19.24 37.6237 19.144 37.4317 18.952C37.2397 18.744 37.1437 18.464 37.1437 18.112V1.912C37.1437 1.56 37.2397 1.288 37.4317 1.096C37.6237 0.887999 37.8957 0.783998 38.2477 0.783998C38.5997 0.783998 38.8717 0.887999 39.0637 1.096C39.2717 1.288 39.3757 1.56 39.3757 1.912L39.3997 9.256C40.6797 7.752 42.3277 7 44.3437 7C46.3117 7 47.8637 7.552 48.9997 8.656C50.1357 9.744 50.7037 11.232 50.7037 13.12C50.7037 15.056 50.1437 16.56 49.0237 17.632C47.9037 18.704 46.3277 19.24 44.2957 19.24C43.2397 19.24 42.3117 19.056 41.5117 18.688C40.7117 18.304 39.9997 17.72 39.3757 16.936V18.112C39.3757 18.464 39.2717 18.744 39.0637 18.952C38.8717 19.144 38.5997 19.24 38.2477 19.24ZM44.0557 17.392C45.4957 17.392 46.5917 17.032 47.3437 16.312C48.0957 15.576 48.4717 14.512 48.4717 13.12C48.4717 11.776 48.0797 10.728 47.2957 9.976C46.5117 9.224 45.4317 8.848 44.0557 8.848C43.1437 8.848 42.3277 9.032 41.6077 9.4C40.9037 9.752 40.3517 10.256 39.9517 10.912C39.5677 11.552 39.3757 12.288 39.3757 13.12C39.3757 14.448 39.7917 15.496 40.6237 16.264C41.4557 17.016 42.5997 17.392 44.0557 17.392ZM59.5835 19.24C58.2715 19.24 57.0475 19 55.9115 18.52C54.7755 18.024 53.8315 17.32 53.0795 16.408C52.8875 16.168 52.7915 15.92 52.7915 15.664C52.7915 15.344 52.9435 15.08 53.2475 14.872C53.4555 14.744 53.6475 14.68 53.8235 14.68C54.1755 14.68 54.4795 14.848 54.7355 15.184C55.2795 15.872 55.9755 16.408 56.8235 16.792C57.6715 17.176 58.5915 17.368 59.5835 17.368C60.9755 17.368 62.0635 17.104 62.8475 16.576C63.6315 16.048 64.0235 15.304 64.0235 14.344C64.0235 12.2 62.9515 11.128 60.8075 11.128H58.1435C57.7755 11.128 57.4875 11.048 57.2795 10.888C57.0875 10.728 56.9915 10.504 56.9915 10.216C56.9915 9.592 57.3755 9.28 58.1435 9.28H60.8075C61.6555 9.28 62.3355 9.04 62.8475 8.56C63.3595 8.08 63.6155 7.44 63.6155 6.64C63.6155 5.744 63.2715 5.056 62.5835 4.576C61.8955 4.08 60.9115 3.832 59.6315 3.832C57.7915 3.832 56.3275 4.456 55.2395 5.704C54.9835 6.008 54.6955 6.16 54.3755 6.16C54.1515 6.16 53.9435 6.088 53.7515 5.944C53.4635 5.752 53.3195 5.488 53.3195 5.152C53.3195 4.88 53.4235 4.64 53.6315 4.432C54.3835 3.632 55.2715 3.024 56.2955 2.608C57.3355 2.176 58.4475 1.96 59.6315 1.96C60.9115 1.96 62.0155 2.152 62.9435 2.536C63.8875 2.92 64.6075 3.472 65.1035 4.192C65.6155 4.896 65.8715 5.712 65.8715 6.64C65.8715 7.36 65.6635 8.016 65.2475 8.608C64.8475 9.2 64.2475 9.704 63.4475 10.12V10.168C64.4075 10.584 65.1195 11.136 65.5835 11.824C66.0475 12.496 66.2795 13.336 66.2795 14.344C66.2795 15.352 66.0075 16.224 65.4635 16.96C64.9195 17.696 64.1435 18.264 63.1355 18.664C62.1275 19.048 60.9435 19.24 59.5835 19.24ZM69.9586 19.24C69.6066 19.24 69.3346 19.144 69.1426 18.952C68.9506 18.744 68.8546 18.464 68.8546 18.112V1.912C68.8546 1.56 68.9506 1.288 69.1426 1.096C69.3346 0.887999 69.6066 0.783998 69.9586 0.783998C70.3106 0.783998 70.5826 0.887999 70.7746 1.096C70.9826 1.288 71.0866 1.56 71.0866 1.912L71.1106 9.256C72.3906 7.752 74.0386 7 76.0546 7C78.0226 7 79.5746 7.552 80.7106 8.656C81.8466 9.744 82.4146 11.232 82.4146 13.12C82.4146 15.056 81.8546 16.56 80.7346 17.632C79.6146 18.704 78.0386 19.24 76.0066 19.24C74.9506 19.24 74.0226 19.056 73.2226 18.688C72.4226 18.304 71.7106 17.72 71.0866 16.936V18.112C71.0866 18.464 70.9826 18.744 70.7746 18.952C70.5826 19.144 70.3106 19.24 69.9586 19.24ZM75.7666 17.392C77.2066 17.392 78.3026 17.032 79.0546 16.312C79.8066 15.576 80.1826 14.512 80.1826 13.12C80.1826 11.776 79.7906 10.728 79.0066 9.976C78.2226 9.224 77.1426 8.848 75.7666 8.848C74.8546 8.848 74.0386 9.032 73.3186 9.4C72.6146 9.752 72.0626 10.256 71.6626 10.912C71.2786 11.552 71.0866 12.288 71.0866 13.12C71.0866 14.448 71.5026 15.496 72.3346 16.264C73.1666 17.016 74.3106 17.392 75.7666 17.392ZM85.9904 19.24C85.6384 19.24 85.3664 19.144 85.1744 18.952C84.9984 18.744 84.9104 18.464 84.9104 18.112V8.128C84.9104 7.376 85.2704 7 85.9904 7C86.3264 7 86.5904 7.104 86.7824 7.312C86.9744 7.504 87.0704 7.776 87.0704 8.128V9.352C88.1264 7.944 89.5584 7.24 91.3664 7.24H91.9424C92.3264 7.24 92.6224 7.32 92.8304 7.48C93.0384 7.64 93.1424 7.872 93.1424 8.176C93.1424 8.464 93.0304 8.688 92.8064 8.848C92.5984 9.008 92.3104 9.088 91.9424 9.088H91.2224C89.9584 9.088 88.9584 9.464 88.2224 10.216C87.4864 10.952 87.1184 11.96 87.1184 13.24V18.112C87.1184 18.464 87.0144 18.744 86.8064 18.952C86.6144 19.144 86.3424 19.24 85.9904 19.24ZM96.2188 4.816C95.8028 4.816 95.4508 4.688 95.1628 4.432C94.8748 4.16 94.7308 3.824 94.7308 3.424C94.7308 3.024 94.8748 2.688 95.1628 2.416C95.4508 2.144 95.8028 2.008 96.2188 2.008C96.6668 2.008 97.0348 2.144 97.3228 2.416C97.6268 2.688 97.7788 3.024 97.7788 3.424C97.7788 3.808 97.6268 4.136 97.3228 4.408C97.0348 4.68 96.6668 4.816 96.2188 4.816ZM96.2428 19.24C95.8908 19.24 95.6188 19.144 95.4268 18.952C95.2348 18.744 95.1388 18.464 95.1388 18.112V8.128C95.1388 7.776 95.2348 7.504 95.4268 7.312C95.6188 7.104 95.8908 7 96.2428 7C96.5948 7 96.8668 7.104 97.0588 7.312C97.2508 7.504 97.3468 7.776 97.3468 8.128V18.112C97.3468 18.464 97.2508 18.744 97.0588 18.952C96.8668 19.144 96.5948 19.24 96.2428 19.24ZM106.681 19.24C105.385 19.24 104.257 19 103.297 18.52C102.337 18.024 101.593 17.32 101.065 16.408C100.537 15.496 100.273 14.416 100.273 13.168C100.273 11.968 100.521 10.904 101.017 9.976C101.529 9.032 102.273 8.304 103.249 7.792C104.225 7.264 105.385 7 106.729 7C107.817 7 108.737 7.2 109.489 7.6C110.257 7.984 110.953 8.536 111.577 9.256L111.601 1.912C111.601 1.56 111.697 1.288 111.889 1.096C112.097 0.887999 112.377 0.783998 112.729 0.783998C113.065 0.783998 113.329 0.887999 113.521 1.096C113.713 1.288 113.809 1.56 113.809 1.912V18.112C113.809 18.464 113.713 18.744 113.521 18.952C113.329 19.144 113.065 19.24 112.729 19.24C112.377 19.24 112.097 19.144 111.889 18.952C111.697 18.744 111.601 18.464 111.601 18.112V16.936C110.481 18.472 108.841 19.24 106.681 19.24ZM106.921 17.392C108.377 17.392 109.521 17.016 110.353 16.264C111.185 15.496 111.601 14.448 111.601 13.12C111.601 11.808 111.161 10.768 110.281 10C109.401 9.232 108.289 8.848 106.945 8.848C105.553 8.848 104.465 9.24 103.681 10.024C102.897 10.808 102.505 11.856 102.505 13.168C102.505 14.544 102.889 15.592 103.657 16.312C104.441 17.032 105.529 17.392 106.921 17.392ZM123.241 25.024C122.057 25.024 120.977 24.848 120.001 24.496C119.041 24.144 118.265 23.648 117.673 23.008C117.513 22.832 117.433 22.64 117.433 22.432C117.433 22.16 117.585 21.896 117.889 21.64C118.033 21.512 118.217 21.448 118.441 21.448C118.777 21.448 119.097 21.608 119.401 21.928C119.785 22.328 120.281 22.64 120.889 22.864C121.513 23.104 122.241 23.224 123.073 23.224C124.529 23.224 125.649 22.848 126.433 22.096C127.217 21.344 127.601 20.272 127.585 18.88V17.056C127.041 17.744 126.353 18.296 125.521 18.712C124.689 19.112 123.713 19.312 122.593 19.312C120.577 19.312 119.017 18.776 117.913 17.704C116.809 16.616 116.257 15.144 116.257 13.288C116.257 11.384 116.817 9.864 117.937 8.728C119.057 7.576 120.657 7 122.737 7C123.729 7 124.633 7.2 125.449 7.6C126.265 8 126.977 8.568 127.585 9.304V8.08C127.585 7.76 127.689 7.504 127.897 7.312C128.121 7.104 128.393 7 128.713 7C129.049 7 129.313 7.096 129.505 7.288C129.713 7.48 129.817 7.744 129.817 8.08V18.88C129.817 20.112 129.545 21.192 129.001 22.12C128.457 23.048 127.689 23.76 126.697 24.256C125.705 24.768 124.553 25.024 123.241 25.024ZM122.905 17.44C123.753 17.44 124.529 17.28 125.233 16.96C125.953 16.64 126.521 16.16 126.937 15.52C127.369 14.88 127.585 14.096 127.585 13.168C127.585 11.888 127.177 10.848 126.361 10.048C125.545 9.248 124.417 8.848 122.977 8.848C121.553 8.848 120.449 9.24 119.665 10.024C118.881 10.792 118.489 11.88 118.489 13.288C118.489 14.568 118.865 15.584 119.617 16.336C120.385 17.072 121.481 17.44 122.905 17.44ZM138.795 19.24C136.715 19.24 135.091 18.704 133.923 17.632C132.771 16.544 132.195 15.04 132.195 13.12C132.195 11.216 132.763 9.72 133.899 8.632C135.051 7.544 136.643 7 138.675 7C139.923 7 141.027 7.2 141.987 7.6C142.963 7.984 143.723 8.536 144.267 9.256C144.811 9.96 145.083 10.768 145.083 11.68C145.083 12.384 144.875 12.928 144.459 13.312C144.059 13.696 143.483 13.888 142.731 13.888H134.403C134.403 15.008 134.779 15.88 135.531 16.504C136.299 17.112 137.387 17.416 138.795 17.416C139.627 17.416 140.347 17.328 140.955 17.152C141.579 16.976 142.163 16.688 142.707 16.288C143.107 16.016 143.411 15.88 143.619 15.88C143.811 15.88 143.987 15.96 144.147 16.12C144.371 16.344 144.483 16.576 144.483 16.816C144.483 17.056 144.371 17.28 144.147 17.488C142.835 18.656 141.051 19.24 138.795 19.24ZM142.059 12.208C142.347 12.208 142.555 12.152 142.683 12.04C142.811 11.928 142.875 11.728 142.875 11.44C142.875 10.672 142.483 10.048 141.699 9.568C140.931 9.072 139.923 8.824 138.675 8.824C137.379 8.824 136.347 9.128 135.579 9.736C134.827 10.344 134.451 11.168 134.451 12.208H142.059ZM155.229 19.24C154.893 19.24 154.621 19.144 154.413 18.952C154.221 18.744 154.125 18.464 154.125 18.112V7.6C154.125 5.84 154.613 4.464 155.589 3.472C156.581 2.464 157.949 1.96 159.693 1.96C160.653 1.96 161.541 2.2 162.357 2.68C163.173 3.16 163.813 3.816 164.277 4.648C164.741 3.8 165.373 3.144 166.173 2.68C166.973 2.2 167.861 1.96 168.837 1.96C170.581 1.96 171.949 2.464 172.941 3.472C173.933 4.464 174.429 5.84 174.429 7.6V18.112C174.429 18.464 174.325 18.744 174.117 18.952C173.909 19.144 173.629 19.24 173.277 19.24C172.925 19.24 172.653 19.144 172.461 18.952C172.269 18.744 172.173 18.464 172.173 18.112V7.6C172.173 6.336 171.909 5.392 171.381 4.768C170.853 4.144 169.981 3.832 168.765 3.832C167.709 3.832 166.877 4.168 166.269 4.84C165.677 5.496 165.381 6.416 165.381 7.6V18.112C165.381 18.464 165.277 18.744 165.069 18.952C164.877 19.144 164.613 19.24 164.277 19.24C163.925 19.24 163.653 19.144 163.461 18.952C163.269 18.744 163.173 18.464 163.173 18.112V7.6C163.173 6.448 162.861 5.536 162.237 4.864C161.629 4.176 160.805 3.832 159.765 3.832C158.565 3.832 157.701 4.152 157.173 4.792C156.645 5.416 156.381 6.352 156.381 7.6V18.112C156.381 18.464 156.277 18.744 156.069 18.952C155.861 19.144 155.581 19.24 155.229 19.24ZM183.678 19.24C181.598 19.24 179.974 18.704 178.806 17.632C177.654 16.544 177.078 15.04 177.078 13.12C177.078 11.216 177.646 9.72 178.782 8.632C179.934 7.544 181.526 7 183.558 7C184.806 7 185.91 7.2 186.87 7.6C187.846 7.984 188.606 8.536 189.15 9.256C189.694 9.96 189.966 10.768 189.966 11.68C189.966 12.384 189.758 12.928 189.342 13.312C188.942 13.696 188.366 13.888 187.614 13.888H179.286C179.286 15.008 179.662 15.88 180.414 16.504C181.182 17.112 182.27 17.416 183.678 17.416C184.51 17.416 185.23 17.328 185.838 17.152C186.462 16.976 187.046 16.688 187.59 16.288C187.99 16.016 188.294 15.88 188.502 15.88C188.694 15.88 188.87 15.96 189.03 16.12C189.254 16.344 189.366 16.576 189.366 16.816C189.366 17.056 189.254 17.28 189.03 17.488C187.718 18.656 185.934 19.24 183.678 19.24ZM186.942 12.208C187.23 12.208 187.438 12.152 187.566 12.04C187.694 11.928 187.758 11.728 187.758 11.44C187.758 10.672 187.366 10.048 186.582 9.568C185.814 9.072 184.806 8.824 183.558 8.824C182.262 8.824 181.23 9.128 180.462 9.736C179.71 10.344 179.334 11.168 179.334 12.208H186.942ZM198.514 19.24C196.434 19.24 194.81 18.704 193.642 17.632C192.49 16.544 191.914 15.04 191.914 13.12C191.914 11.216 192.482 9.72 193.618 8.632C194.77 7.544 196.362 7 198.394 7C199.642 7 200.746 7.2 201.706 7.6C202.682 7.984 203.442 8.536 203.986 9.256C204.53 9.96 204.802 10.768 204.802 11.68C204.802 12.384 204.594 12.928 204.178 13.312C203.778 13.696 203.202 13.888 202.45 13.888H194.122C194.122 15.008 194.498 15.88 195.25 16.504C196.018 17.112 197.106 17.416 198.514 17.416C199.346 17.416 200.066 17.328 200.674 17.152C201.298 16.976 201.882 16.688 202.426 16.288C202.826 16.016 203.13 15.88 203.338 15.88C203.53 15.88 203.706 15.96 203.866 16.12C204.09 16.344 204.202 16.576 204.202 16.816C204.202 17.056 204.09 17.28 203.866 17.488C202.554 18.656 200.77 19.24 198.514 19.24ZM201.778 12.208C202.066 12.208 202.274 12.152 202.402 12.04C202.53 11.928 202.594 11.728 202.594 11.44C202.594 10.672 202.202 10.048 201.418 9.568C200.65 9.072 199.642 8.824 198.394 8.824C197.098 8.824 196.066 9.128 195.298 9.736C194.546 10.344 194.17 11.168 194.17 12.208H201.778ZM215.26 16.384C215.468 16.56 215.572 16.76 215.572 16.984C215.572 17.176 215.484 17.408 215.308 17.68C214.972 18.16 214.5 18.544 213.892 18.832C213.284 19.104 212.636 19.24 211.948 19.24C210.812 19.24 209.916 18.92 209.26 18.28C208.62 17.624 208.3 16.728 208.3 15.592V9.04H207.1C206.732 9.04 206.444 8.96 206.236 8.8C206.044 8.64 205.948 8.416 205.948 8.128C205.948 7.856 206.044 7.64 206.236 7.48C206.444 7.32 206.732 7.24 207.1 7.24H208.3V3.304C208.3 2.952 208.396 2.68 208.588 2.488C208.796 2.28 209.076 2.176 209.428 2.176C209.78 2.176 210.044 2.272 210.22 2.464C210.412 2.656 210.508 2.936 210.508 3.304V7.24H213.46C213.828 7.24 214.108 7.32 214.3 7.48C214.508 7.624 214.612 7.84 214.612 8.128C214.612 8.416 214.508 8.64 214.3 8.8C214.108 8.96 213.828 9.04 213.46 9.04H210.508V15.784C210.508 16.296 210.644 16.696 210.916 16.984C211.188 17.256 211.572 17.392 212.068 17.392C212.42 17.392 212.732 17.336 213.004 17.224C213.276 17.096 213.548 16.888 213.82 16.6C214.124 16.296 214.404 16.144 214.66 16.144C214.884 16.144 215.084 16.224 215.26 16.384Z" fill="black"/>
</svg>
