<svg width="25" height="24" viewBox="0 0 25 24" fill="none" xmlns="http://www.w3.org/2000/svg">
<path d="M6.5 10C6.5 9.44772 6.94772 9 7.5 9H12.5C13.0523 9 13.5 9.44772 13.5 10C13.5 10.5523 13.0523 11 12.5 11H7.5C6.94772 11 6.5 10.5523 6.5 10Z" fill="#131313"/>
<path d="M7.5 13C6.94772 13 6.5 13.4477 6.5 14C6.5 14.5523 6.94772 15 7.5 15H16.5C17.0523 15 17.5 14.5523 17.5 14C17.5 13.4477 17.0523 13 16.5 13H7.5Z" fill="#131313"/>
<path fill-rule="evenodd" clip-rule="evenodd" d="M1.5 16C1.5 18.2091 3.29086 20 5.5 20H17.5C19.7091 20 21.5 18.2091 21.5 16V9.29669C21.5 8.94864 21.5908 8.60661 21.7635 8.30442L22.5133 6.99228C23.2752 5.65897 22.3125 4 20.7768 4H5.5C3.29086 4 1.5 5.79086 1.5 8V16ZM5.5 18C4.39543 18 3.5 17.1046 3.5 16V8C3.5 6.89543 4.39543 6 5.5 6H20.7768L20.027 7.31214C19.6817 7.91653 19.5 8.60059 19.5 9.29669V16C19.5 17.1046 18.6046 18 17.5 18H5.5Z" fill="#131313"/>
</svg>
