<svg width="25" height="24" viewBox="0 0 25 24" fill="none" xmlns="http://www.w3.org/2000/svg">
<path d="M10.5003 8C11.0526 8 11.5003 8.44772 11.5003 9V13C11.5003 13.5523 11.0526 14 10.5003 14C9.94799 14 9.50027 13.5523 9.50027 13V9C9.50027 8.44772 9.94799 8 10.5003 8Z" fill="#FEFEFE"/>
<path d="M15.5003 9C15.5003 8.44772 15.0526 8 14.5003 8C13.948 8 13.5003 8.44772 13.5003 9V13C13.5003 13.5523 13.948 14 14.5003 14C15.0526 14 15.5003 13.5523 15.5003 13V9Z" fill="#FEFEFE"/>
<path fill-rule="evenodd" clip-rule="evenodd" d="M12.5003 2C8.63428 2 5.50027 5.13401 5.50027 9V13C5.50027 16.866 8.63428 20 12.5003 20C16.3663 20 19.5003 16.866 19.5003 13V9C19.5003 5.13401 16.3663 2 12.5003 2ZM7.50027 9C7.50027 6.23858 9.73885 4 12.5003 4C15.2617 4 17.5003 6.23858 17.5003 9V13C17.5003 15.7614 15.2617 18 12.5003 18C9.73885 18 7.50027 15.7614 7.50027 13V9Z" fill="#FEFEFE"/>
<path d="M5.44895 15.6838C5.27431 15.1598 4.70799 14.8767 4.18404 15.0513C3.6601 15.226 3.37694 15.7923 3.55159 16.3162C6.41819 24.916 18.5824 24.916 21.449 16.3162C21.6236 15.7923 21.3404 15.226 20.8165 15.0513C20.2926 14.8767 19.7262 15.1598 19.5516 15.6838C17.2928 22.4602 7.70776 22.4602 5.44895 15.6838Z" fill="#FEFEFE"/>
</svg>
