<svg width="25" height="24" viewBox="0 0 25 24" fill="none" xmlns="http://www.w3.org/2000/svg">
<path fill-rule="evenodd" clip-rule="evenodd" d="M20.5 7.5C20.5 8.05229 20.9477 8.5 21.5 8.5C22.0523 8.5 22.5 8.05229 22.5 7.5V6C22.5 3.79086 20.7091 2 18.5 2H6.5C4.29086 2 2.5 3.79086 2.5 6V7.5C2.5 8.05228 2.94772 8.5 3.5 8.5C4.05228 8.5 4.5 8.05229 4.5 7.5V6C4.5 4.89543 5.39543 4 6.5 4L18.5 4C19.6046 4 20.5 4.89543 20.5 6V7.5ZM11.7929 7.29289C12.1834 6.90237 12.8166 6.90237 13.2071 7.29289L17.2071 11.2929C17.5976 11.6834 17.5976 12.3166 17.2071 12.7071C16.8166 13.0976 16.1834 13.0976 15.7929 12.7071L13.5 10.4142L13.5 22C13.5 22.5523 13.0523 23 12.5 23C11.9477 23 11.5 22.5523 11.5 22L11.5 10.4142L9.20711 12.7071C8.81658 13.0976 8.18342 13.0976 7.79289 12.7071C7.40237 12.3166 7.40237 11.6834 7.79289 11.2929L11.7929 7.29289Z" fill="#131313"/>
</svg>
