<svg width="25" height="24" viewBox="0 0 25 24" fill="none" xmlns="http://www.w3.org/2000/svg">
<path d="M7.5 12C7.5 9.23858 9.73858 7 12.5 7C15.2614 7 17.5 9.23858 17.5 12C17.5 14.7614 15.2614 17 12.5 17C9.73858 17 7.5 14.7614 7.5 12Z" fill="#C22727"/>
<path fill-rule="evenodd" clip-rule="evenodd" d="M12.5 21C17.4706 21 21.5 16.9706 21.5 12C21.5 7.02944 17.4706 3 12.5 3C7.52944 3 3.5 7.02944 3.5 12C3.5 16.9706 7.52944 21 12.5 21ZM12.5 5C8.63401 5 5.5 8.13401 5.5 12C5.5 15.866 8.63401 19 12.5 19C16.366 19 19.5 15.866 19.5 12C19.5 8.13401 16.366 5 12.5 5Z" fill="#C22727"/>
</svg>
